<?xml version="1.0" encoding="utf-8"?>
<!-- Generator: Adobe Illustrator 16.0.0, SVG Export Plug-In . SVG Version: 6.00 Build 0)  -->
<!DOCTYPE svg PUBLIC "-//W3C//DTD SVG 1.1//EN" "http://www.w3.org/Graphics/SVG/1.1/DTD/svg11.dtd">
<svg version="1.1" id="Layer_1" xmlns="http://www.w3.org/2000/svg" xmlns:xlink="http://www.w3.org/1999/xlink" x="0px" y="0px"
	 width="532.91px" height="384.28px" viewBox="0 0 532.91 384.28" enable-background="new 0 0 532.91 384.28" xml:space="preserve">
<g>
	<path fill-rule="evenodd" clip-rule="evenodd" d="M141.232,152.881l-1.355,32.474c-13.388-6.499-25.95-8.936-37.398-5.905
		c-3.817,1.01-7.509,2.628-11.068,4.906c-3.099,2.514-5.705,5.444-7.797,8.745c-4.603,7.262-6.714,16.323-6.099,26.726
		c2.317,39.183,26.229,47.117,62.87,33.807l-1.112,31.368c-24.644,7.554-48.835,7.554-72.575,0
		c-18.235-6.544-30.529-19.658-36.88-39.34c-0.657-2.036-1.251-4.142-1.781-6.319c-2.999-13.661-2.519-26.605,0.339-38.994
		c4.376-18.995,14.759-33.07,31.15-42.225c2.681-1.499,5.524-2.865,8.528-4.099C90.382,145.977,114.838,145.831,141.232,152.881
		L141.232,152.881z"/>
	<polygon fill-rule="evenodd" clip-rule="evenodd" points="148.857,150.883 198.509,150.383 198.961,287.668 148.769,288.001 
		148.857,150.883 	"/>
	<polygon fill-rule="evenodd" clip-rule="evenodd" points="207.439,151.025 254.918,149.693 279.675,246.009 303.074,150.359 
		344.449,150.692 300.361,287.001 249.831,288.001 207.439,151.025 	"/>
	<polygon fill-rule="evenodd" clip-rule="evenodd" points="351.571,151.025 401.423,150.692 401.423,287.335 352.25,288.334 
		351.571,151.025 	"/>
	<polygon fill-rule="evenodd" clip-rule="evenodd" points="412.368,150.716 461.173,150.383 460.495,258.962 506.249,258.629 
		505.74,287.439 412.707,287.439 412.368,150.716 	"/>
	<path fill-rule="evenodd" clip-rule="evenodd" d="M27.134,35.409h38.149c8.311,0,14.53,2.276,18.678,6.848
		c4.129,4.572,6.202,11.081,6.202,19.527c0,8.665-2.264,15.453-6.772,20.325c-4.51,4.891-11.403,7.327-20.665,7.327H50.148v31.744
		H27.134V35.409L27.134,35.409z M50.148,72.065h5.65c4.458,0,7.585-0.898,9.381-2.675c1.797-1.777,2.696-4.053,2.696-6.828
		c0-2.696-0.778-4.972-2.35-6.848c-1.555-1.877-4.492-2.815-8.812-2.815h-6.566V72.065L50.148,72.065z M99.199,78.354
		c0-13.996,3.369-24.896,10.125-32.684c6.755-7.806,16.154-11.699,28.215-11.699c12.353,0,21.873,3.833,28.56,11.479
		c6.687,7.667,10.021,18.408,10.021,32.205c0,10.022-1.452,18.229-4.371,24.637c-2.92,6.409-7.153,11.4-12.665,14.974
		c-5.529,3.574-12.406,5.351-20.647,5.351c-8.362,0-15.291-1.537-20.785-4.612c-5.477-3.095-9.935-7.966-13.338-14.635
		C100.91,96.723,99.199,88.377,99.199,78.354L99.199,78.354z M122.109,78.415c0,8.645,1.399,14.875,4.181,18.647
		c2.799,3.774,6.601,5.67,11.404,5.67c4.924,0,8.76-1.856,11.455-5.55c2.713-3.714,4.061-10.342,4.061-19.946
		c0-8.066-1.417-13.956-4.233-17.669c-2.833-3.733-6.651-5.59-11.49-5.59c-4.63,0-8.362,1.897-11.161,5.67
		C123.509,63.42,122.109,69.69,122.109,78.415L122.109,78.415z M188.456,35.409h22.91v64.688h35.869v21.083h-58.779V35.409
		L188.456,35.409z M258.534,35.409h23.014v85.771h-23.014V35.409L258.534,35.409z M269.626,12.769h17.727l-16.378,17.489h-9.849
		L269.626,12.769L269.626,12.769z M347.393,86.081l20.112,7.008c-1.348,6.509-3.474,11.959-6.393,16.312
		c-2.903,4.373-6.497,7.667-10.815,9.883c-4.303,2.216-9.78,3.334-16.432,3.334c-8.086,0-14.669-1.357-19.801-4.053
		c-5.114-2.715-9.52-7.487-13.234-14.295s-5.581-15.553-5.581-26.174c0-14.176,3.266-25.077,9.796-32.703
		c6.55-7.607,15.793-11.42,27.749-11.42c9.347,0,16.707,2.176,22.063,6.548c5.339,4.373,9.33,11.081,11.921,20.145l-20.214,5.171
		c-0.709-2.595-1.452-4.492-2.229-5.69c-1.296-2.017-2.868-3.574-4.717-4.652c-1.866-1.098-3.939-1.637-6.237-1.637
		c-5.217,0-9.208,2.416-11.973,7.227c-2.091,3.574-3.145,9.204-3.145,16.851c0,9.503,1.243,15.992,3.749,19.525
		c2.505,3.515,6.012,5.271,10.539,5.271c4.389,0,7.705-1.417,9.952-4.272C344.75,95.625,346.373,91.492,347.393,86.081
		L347.393,86.081z M379.512,35.409h23.016v85.771h-23.016V35.409L379.512,35.409z M464.587,107.045h-25.984l-3.732,14.135h-23.411
		l27.938-85.771h25.104l27.817,85.771h-24.017L464.587,107.045L464.587,107.045z M459.733,88.478l-8.104-30.827l-8.139,30.827
		H459.733L459.733,88.478z"/>
	<path fill-rule="evenodd" clip-rule="evenodd" fill="#ED1C24" d="M26.54,316.78h17.277l6.582,28.443L57,316.78h17.198v46.746
		H63.482v-35.638l-8.269,35.638h-9.709l-8.249-35.638v35.638H26.54V316.78L26.54,316.78z M83.068,316.78h13.143v46.746H83.068
		V316.78L83.068,316.78z M105.693,316.78h12.226l15.896,25.811V316.78h12.373v46.746h-12.373l-15.808-25.67v25.67h-12.314V316.78
		L105.693,316.78z M180.388,355.822h-14.84l-2.131,7.704h-13.37l15.955-46.746h14.337l15.886,46.746h-13.715L180.388,355.822
		L180.388,355.822z M177.615,345.702l-4.628-16.801l-4.647,16.801H177.615L177.615,345.702z M198.109,348.063l12.433-0.858
		c0.266,2.219,0.819,3.916,1.647,5.069c1.352,1.883,3.276,2.83,5.782,2.83c1.865,0,3.306-0.479,4.312-1.448
		c1.017-0.968,1.52-2.088,1.52-3.361c0-1.208-0.474-2.297-1.431-3.254c-0.957-0.958-3.187-1.85-6.69-2.709
		c-5.743-1.416-9.828-3.309-12.275-5.67c-2.467-2.351-3.7-5.354-3.7-9.01c0-2.394,0.631-4.657,1.895-6.79
		c1.264-2.144,3.158-3.819,5.693-5.038c2.536-1.219,6.009-1.828,10.42-1.828c5.417,0,9.542,1.11,12.383,3.342
		c2.842,2.219,4.529,5.755,5.072,10.608l-12.314,0.805c-0.326-2.122-1.017-3.666-2.063-4.623c-1.056-0.97-2.506-1.448-4.351-1.448
		c-1.52,0-2.674,0.358-3.444,1.066c-0.77,0.707-1.154,1.577-1.154,2.601c0,0.74,0.316,1.404,0.937,2.003
		c0.602,0.62,2.063,1.186,4.371,1.719c5.723,1.36,9.818,2.741,12.285,4.135c2.477,1.393,4.283,3.111,5.407,5.18
		c1.125,2.057,1.688,4.363,1.688,6.921c0,2.992-0.75,5.756-2.25,8.291c-1.509,2.525-3.602,4.451-6.305,5.757
		c-2.694,1.307-6.088,1.958-10.193,1.958c-7.203,0-12.196-1.533-14.968-4.591C200.043,356.66,198.474,352.776,198.109,348.063
		L198.109,348.063z M284.17,346.617v-9.729h20.247v19.88c-3.877,2.917-7.302,4.907-10.271,5.964
		c-2.979,1.056-6.513,1.577-10.597,1.577c-5.032,0-9.137-0.946-12.305-2.84c-3.168-1.882-5.625-4.701-7.371-8.444
		c-1.747-3.732-2.615-8.03-2.615-12.872c0-5.104,0.957-9.532,2.861-13.309c1.904-3.765,4.696-6.627,8.377-8.585
		c2.872-1.513,6.739-2.264,11.594-2.264c4.678,0,8.181,0.468,10.499,1.403c2.328,0.937,4.253,2.384,5.782,4.353
		c1.529,1.97,2.684,4.462,3.453,7.476l-12.61,2.504c-0.522-1.774-1.4-3.134-2.645-4.07c-1.242-0.946-2.821-1.415-4.755-1.415
		c-2.862,0-5.151,1.099-6.857,3.298c-1.708,2.198-2.557,5.68-2.557,10.435c0,5.05,0.858,8.662,2.585,10.828
		c1.718,2.165,4.125,3.253,7.204,3.253c1.46,0,2.851-0.229,4.184-0.696c1.321-0.468,2.841-1.262,4.559-2.373v-4.373H284.17
		L284.17,346.617z M312.173,316.78h35.048v9.988h-21.904v7.443h20.306v9.532h-20.306v9.206h22.556v10.576h-35.699V316.78
		L312.173,316.78z M355.104,363.526V316.78h21.826c4.046,0,7.145,0.381,9.275,1.152c2.141,0.762,3.867,2.188,5.18,4.256
		c1.313,2.078,1.964,4.612,1.964,7.594c0,2.59-0.504,4.832-1.51,6.715c-0.997,1.894-2.378,3.416-4.144,4.592
		c-1.115,0.739-2.655,1.361-4.598,1.85c1.559,0.577,2.693,1.144,3.403,1.72c0.474,0.381,1.175,1.208,2.092,2.459
		c0.907,1.252,1.52,2.22,1.825,2.905l6.364,13.504h-14.801l-6.995-14.255c-0.889-1.85-1.678-3.047-2.368-3.602
		c-0.947-0.719-2.022-1.077-3.217-1.077h-1.154v18.934H355.104L355.104,363.526z M368.248,335.778h5.535
		c0.592,0,1.757-0.218,3.473-0.642c0.868-0.185,1.579-0.675,2.122-1.47c0.553-0.793,0.828-1.697,0.828-2.72
		c0-1.513-0.434-2.677-1.302-3.481c-0.868-0.816-2.497-1.22-4.894-1.22h-5.763V335.778L368.248,335.778z M427.056,355.822h-14.84
		l-2.131,7.704h-13.371l15.955-46.746h14.338l15.887,46.746h-13.717L427.056,355.822L427.056,355.822z M424.284,345.702
		l-4.629-16.801l-4.647,16.801H424.284L424.284,345.702z M447.56,316.78h13.143v46.746H447.56V316.78L447.56,316.78z
		 M467.816,348.063l12.433-0.858c0.268,2.219,0.82,3.916,1.648,5.069c1.352,1.883,3.275,2.83,5.782,2.83
		c1.864,0,3.306-0.479,4.312-1.448c1.017-0.968,1.52-2.088,1.52-3.361c0-1.208-0.475-2.297-1.431-3.254
		c-0.958-0.958-3.187-1.85-6.689-2.709c-5.743-1.416-9.827-3.309-12.275-5.67c-2.466-2.351-3.7-5.354-3.7-9.01
		c0-2.394,0.632-4.657,1.895-6.79c1.264-2.144,3.158-3.819,5.693-5.038c2.536-1.219,6.01-1.828,10.42-1.828
		c5.417,0,9.542,1.11,12.383,3.342c2.842,2.219,4.529,5.755,5.072,10.608l-12.314,0.805c-0.325-2.122-1.016-3.666-2.063-4.623
		c-1.055-0.97-2.506-1.448-4.352-1.448c-1.52,0-2.674,0.358-3.443,1.066c-0.77,0.707-1.154,1.577-1.154,2.601
		c0,0.74,0.316,1.404,0.938,2.003c0.602,0.62,2.063,1.186,4.371,1.719c5.723,1.36,9.818,2.741,12.285,4.135
		c2.477,1.393,4.282,3.111,5.406,5.18c1.125,2.057,1.688,4.363,1.688,6.921c0,2.992-0.75,5.756-2.25,8.291
		c-1.51,2.525-3.602,4.451-6.305,5.757c-2.693,1.307-6.088,1.958-10.192,1.958c-7.203,0-12.196-1.533-14.968-4.591
		C469.751,356.66,468.183,352.776,467.816,348.063L467.816,348.063z"/>
</g>
</svg>
